<svg width="29" height="36" viewBox="0 0 29 36" fill="none" xmlns="http://www.w3.org/2000/svg">
<path d="M3.34536 36C2.3925 36 1.59707 35.692 0.959071 35.076C0.31969 34.4587 0 33.69 0 32.77V11.23C0 10.31 0.31969 9.542 0.959071 8.926C1.59707 8.30867 2.3925 8 3.34536 8H7.25V7C7.25 5.056 7.95498 3.40333 9.36493 2.042C10.7749 0.680666 12.4866 0 14.5 0C16.5134 0 18.2251 0.680666 19.6351 2.042C21.045 3.40333 21.75 5.056 21.75 7V8H25.6546C26.6075 8 27.4029 8.30867 28.0409 8.926C28.6803 9.542 29 10.31 29 11.23V32.77C29 33.69 28.681 34.458 28.043 35.074C27.4036 35.6913 26.6075 36 25.6546 36H3.34536ZM3.34536 34H25.6546C25.9723 34 26.2643 33.872 26.5309 33.616C26.796 33.3587 26.9286 33.0767 26.9286 32.77V11.23C26.9286 10.9233 26.796 10.6413 26.5309 10.384C26.2643 10.128 25.9723 10 25.6546 10H21.75V15C21.75 15.284 21.6513 15.522 21.4538 15.714C21.2549 15.9047 21.0084 16 20.7143 16C20.4201 16 20.1736 15.9047 19.9748 15.714C19.7773 15.522 19.6786 15.284 19.6786 15V10H9.32143V15C9.32143 15.284 9.22269 15.522 9.02522 15.714C8.82636 15.9047 8.57986 16 8.28571 16C7.99157 16 7.74507 15.9047 7.54621 15.714C7.34874 15.522 7.25 15.284 7.25 15V10H3.34536C3.02774 10 2.73567 10.128 2.46914 10.384C2.204 10.6413 2.07143 10.9233 2.07143 11.23V32.77C2.07143 33.0767 2.204 33.3587 2.46914 33.616C2.73567 33.872 3.02774 34 3.34536 34ZM9.32143 8H19.6786V7C19.6786 5.592 19.18 4.40667 18.183 3.444C17.186 2.48133 15.9583 2 14.5 2C13.0417 2 11.814 2.48133 10.817 3.444C9.81995 4.40667 9.32143 5.592 9.32143 7V8Z" fill="#82807D"/>
</svg>
