<svg width="14" height="8" viewBox="0 0 14 8" fill="none" xmlns="http://www.w3.org/2000/svg">
<path fill-rule="evenodd" clip-rule="evenodd" d="M6.64602 7.35384C6.69247 7.4004 6.74764 7.43735 6.80839 7.46255C6.86913 7.48776 6.93425 7.50073 7.00002 7.50073C7.06579 7.50073 7.13091 7.48776 7.19165 7.46255C7.2524 7.43735 7.30758 7.4004 7.35402 7.35384L13.354 1.35384C13.4479 1.25995 13.5007 1.13261 13.5007 0.999839C13.5007 0.867063 13.4479 0.739726 13.354 0.645839C13.2601 0.551952 13.1328 0.499207 13 0.499207C12.8672 0.499207 12.7399 0.551952 12.646 0.645839L7.00002 6.29284L1.35402 0.645839C1.26013 0.551952 1.1328 0.499207 1.00002 0.499207C0.867245 0.499207 0.739908 0.551952 0.646021 0.645839C0.552135 0.739726 0.49939 0.867063 0.49939 0.999839C0.49939 1.13261 0.552135 1.25995 0.646021 1.35384L6.64602 7.35384Z" fill="#82807D"/>
</svg>
