<svg width="14" height="8" viewBox="0 0 14 8" fill="none" xmlns="http://www.w3.org/2000/svg">
<path fill-rule="evenodd" clip-rule="evenodd" d="M6.33438 7.35384C6.38082 7.4004 6.436 7.43735 6.49674 7.46255C6.55749 7.48776 6.62261 7.50073 6.68838 7.50073C6.75414 7.50073 6.81926 7.48776 6.88001 7.46255C6.94075 7.43735 6.99593 7.4004 7.04238 7.35384L13.0424 1.35384C13.1363 1.25995 13.189 1.13261 13.189 0.999839C13.189 0.867063 13.1363 0.739726 13.0424 0.645839C12.9485 0.551952 12.8212 0.499207 12.6884 0.499207C12.5556 0.499207 12.4283 0.551952 12.3344 0.645839L6.68838 6.29284L1.04238 0.645839C0.948489 0.551952 0.821151 0.499207 0.688376 0.499207C0.5556 0.499207 0.428262 0.551952 0.334376 0.645839C0.240489 0.739726 0.187744 0.867063 0.187744 0.999839C0.187744 1.13261 0.240489 1.25995 0.334376 1.35384L6.33438 7.35384Z" fill="#A07A2B"/>
</svg>
