<svg width="22" height="29" viewBox="0 0 22 29" fill="none" xmlns="http://www.w3.org/2000/svg">
<path d="M5.33325 11.6111V7.27776C5.33325 5.7454 5.94198 4.2758 7.02552 3.19226C8.10907 2.10871 9.57867 1.49998 11.111 1.49998C12.6434 1.49998 14.113 2.10871 15.1965 3.19226C16.2801 4.2758 16.8888 5.7454 16.8888 7.27776V11.6111" stroke="#3A3A3A" stroke-width="1.5" stroke-linecap="round"/>
<path d="M1 11.6111H21.2222V24.6111C21.2222 25.3773 20.9179 26.1121 20.3761 26.6539C19.8343 27.1956 19.0995 27.5 18.3333 27.5H3.88889C3.12271 27.5 2.38791 27.1956 1.84614 26.6539C1.30436 26.1121 1 25.3773 1 24.6111V11.6111Z" stroke="#3A3A3A" stroke-width="1.5" stroke-linejoin="round"/>
<path d="M14.7222 19.5555H14.7366V19.57H14.7222V19.5555Z" stroke="#3A3A3A" stroke-width="2.25" stroke-linejoin="round"/>
</svg>
