<svg width="32" height="38" viewBox="0 0 32 38" fill="none" xmlns="http://www.w3.org/2000/svg">
<path d="M16 0C13.5752 0 11.2496 1.00089 9.53502 2.78249C7.82041 4.56408 6.85714 6.98044 6.85714 9.5C6.85714 12.0196 7.82041 14.4359 9.53502 16.2175C11.2496 17.9991 13.5752 19 16 19C18.4248 19 20.7504 17.9991 22.465 16.2175C24.1796 14.4359 25.1429 12.0196 25.1429 9.5C25.1429 6.98044 24.1796 4.56408 22.465 2.78249C20.7504 1.00089 18.4248 0 16 0ZM9.14286 9.5C9.14286 7.61033 9.8653 5.79806 11.1513 4.46186C12.4372 3.12567 14.1814 2.375 16 2.375C17.8186 2.375 19.5628 3.12567 20.8487 4.46186C22.1347 5.79806 22.8571 7.61033 22.8571 9.5C22.8571 11.3897 22.1347 13.2019 20.8487 14.5381C19.5628 15.8743 17.8186 16.625 16 16.625C14.1814 16.625 12.4372 15.8743 11.1513 14.5381C9.8653 13.2019 9.14286 11.3897 9.14286 9.5ZM4.592 21.375C3.99003 21.3725 3.3935 21.4935 2.83663 21.7311C2.27976 21.9686 1.7735 22.3181 1.34688 22.7594C0.920261 23.2007 0.581679 23.7251 0.350552 24.3027C0.119424 24.8802 0.000296027 25.4995 0 26.125C0 30.1411 1.904 33.1693 4.88 35.1429C7.81029 37.0833 11.76 38 16 38C20.24 38 24.1897 37.0833 27.12 35.1429C30.096 33.1716 32 30.1388 32 26.125C32 24.8652 31.5184 23.657 30.6611 22.7662C29.8038 21.8754 28.641 21.375 27.4286 21.375H4.592ZM2.28571 26.125C2.28571 24.8116 3.30971 23.75 4.592 23.75H27.4286C28.0348 23.75 28.6162 24.0002 29.0448 24.4456C29.4735 24.891 29.7143 25.4951 29.7143 26.125C29.7143 29.2339 28.2926 31.5495 25.8903 33.1384C23.4446 34.7605 19.9657 35.625 16 35.625C12.0343 35.625 8.55543 34.7605 6.10971 33.1384C3.70971 31.5471 2.28571 29.2362 2.28571 26.125Z" fill="#82807D"/>
</svg>
