<svg width="61" height="62" viewBox="0 0 61 62" fill="none" xmlns="http://www.w3.org/2000/svg">
<path d="M58.3713 61.5L35.0555 38.1871C33.1939 39.7731 31.0529 41.0004 28.6327 41.8691C26.2125 42.7377 23.7799 43.1721 21.3349 43.1721C15.3726 43.1721 10.3262 41.1083 6.19569 36.9809C2.06523 32.8509 0 27.8064 0 21.8472C0 15.8881 2.06275 10.841 6.18824 6.7061C10.3162 2.5687 15.3602 0.5 21.32 0.5C27.2824 0.5 32.3313 2.56498 36.4667 6.69494C40.6021 10.8249 42.6698 15.8719 42.6698 21.836C42.6698 24.4222 42.2119 26.9253 41.2959 29.3452C40.3775 31.7651 39.1736 33.835 37.6842 35.555L49.3421 47.2096L61 58.8642L58.3676 61.5H58.3713ZM21.3349 39.4454C26.2746 39.4454 30.446 37.7453 33.8492 34.345C37.2499 30.9448 38.9502 26.7739 38.9502 21.8323C38.9502 16.8932 37.2499 12.7236 33.8492 9.32331C30.4485 5.92305 26.2783 4.22292 21.3386 4.22292C16.399 4.22292 12.2276 5.92305 8.82439 9.32331C5.42371 12.7236 3.72337 16.8932 3.72337 21.8323C3.72337 26.7714 5.42371 30.9411 8.82439 34.3413C12.2251 37.7416 16.3952 39.4454 21.3349 39.4454Z" fill="#A07A2B"/>
</svg>
