<svg width="26" height="27" viewBox="0 0 26 27" fill="none" xmlns="http://www.w3.org/2000/svg">
<path d="M13 0.499985C9.55219 0.499985 6.24558 1.86962 3.80761 4.3076C1.36964 6.74557 0 10.0522 0 13.5C0 16.9478 1.36964 20.2544 3.80761 22.6924C6.24558 25.1303 9.55219 26.5 13 26.5C15.693 26.5 18.5199 25.6907 20.5604 24.3333C20.7294 24.2209 20.8468 24.046 20.8869 23.847C20.9269 23.648 20.8863 23.4413 20.7739 23.2723C20.6615 23.1033 20.4866 22.9858 20.2876 22.9458C20.0886 22.9058 19.8819 22.9464 19.7128 23.0588C17.9413 24.2377 15.368 24.9706 13 24.9706C10.7313 24.9706 8.51361 24.2978 6.62728 23.0374C4.74095 21.777 3.27074 19.9856 2.40256 17.8896C1.53438 15.7936 1.30722 13.4873 1.74982 11.2622C2.19241 9.03711 3.28488 6.99325 4.88907 5.38905C6.49326 3.78486 8.53712 2.6924 10.7622 2.2498C12.9873 1.80721 15.2936 2.03436 17.3896 2.90254C19.4856 3.77072 21.277 5.24094 22.5374 7.12727C23.7979 9.0136 24.4706 11.2313 24.4706 13.5C24.4706 17.27 22.7143 17.8333 21.6667 17.8333C20.619 17.8333 18.8627 17.27 18.8627 13.5V8.40195C18.8627 8.19913 18.7822 8.00463 18.6388 7.86122C18.4954 7.71781 18.3009 7.63724 18.098 7.63724C17.8952 7.63724 17.7007 7.71781 17.5573 7.86122C17.4139 8.00463 17.3333 8.19913 17.3333 8.40195V9.549C16.5114 8.6452 15.4276 8.02075 14.2334 7.7629C13.0393 7.50505 11.7944 7.62668 10.6728 8.1108C9.55109 8.59493 8.60869 9.41735 7.97722 10.4632C7.34575 11.509 7.05675 12.7259 7.15061 13.944C7.24448 15.1621 7.71651 16.3204 8.50076 17.2571C9.285 18.1938 10.3423 18.8622 11.5249 19.1687C12.7075 19.4753 13.9563 19.4048 15.0968 18.967C16.2374 18.5292 17.2127 17.7461 17.8865 16.727C18.5773 18.4196 19.8824 19.3627 21.6667 19.3627C24.3801 19.3627 26 17.1706 26 13.5C25.996 10.0534 24.625 6.74916 22.1879 4.31207C19.7508 1.87497 16.4466 0.504032 13 0.499985ZM13 17.8333C12.1429 17.8333 11.3051 17.5792 10.5925 17.103C9.87992 16.6269 9.3245 15.9501 8.99652 15.1583C8.66854 14.3665 8.58273 13.4952 8.74993 12.6546C8.91713 11.814 9.32984 11.0419 9.93587 10.4359C10.5419 9.82983 11.314 9.41712 12.1546 9.24992C12.9952 9.08271 13.8665 9.16853 14.6583 9.49651C15.4501 9.82449 16.1269 10.3799 16.603 11.0925C17.0792 11.8051 17.3333 12.6429 17.3333 13.5C17.3333 14.6493 16.8768 15.7515 16.0641 16.5641C15.2515 17.3768 14.1493 17.8333 13 17.8333Z" fill="#3A3A3A"/>
</svg>
